<svg width="28" height="16" viewBox="0 0 28 16" fill="none" xmlns="http://www.w3.org/2000/svg">
<path d="M14.001 16C13.7379 16.0015 13.4771 15.9511 13.2336 15.8516C12.99 15.7521 12.7685 15.6055 12.5817 15.4203L0.587882 3.42642C0.211467 3.05001 0 2.53948 0 2.00715C0 1.47482 0.211467 0.964296 0.587882 0.587882C0.964296 0.211467 1.47482 0 2.00715 0C2.53948 0 3.05001 0.211467 3.42642 0.587882L14.001 11.1824L24.5756 0.607872C24.958 0.280387 25.4499 0.109262 25.953 0.128694C26.4561 0.148127 26.9333 0.356685 27.2893 0.712691C27.6453 1.0687 27.8539 1.54593 27.8733 2.04902C27.8927 2.55212 27.7216 3.04402 27.3941 3.42642L15.4003 15.4203C15.0279 15.7896 14.5254 15.9978 14.001 16Z" fill="white"/>
</svg>
