<svg width="32" height="32" viewBox="0 0 32 32" fill="none" xmlns="http://www.w3.org/2000/svg">
<g clip-path="url(#clip0_1690_244)">
<path d="M3.69016 24.9586C2.62088 24.9586 1.57623 24.6858 0.629477 24.1542C0.142359 23.9033 -0.0463102 23.2757 0.244693 22.8035C1.21156 21.2585 1.5607 19.3699 1.11802 17.5938C0.659179 15.7525 -0.004727 14.2017 2.53718e-05 12.2525C0.0165003 5.41374 5.70865 -0.130372 12.5404 0.00229815C19.1391 0.135206 24.5773 5.68217 24.5774 12.2826C24.5775 20.9028 15.5434 26.955 7.56786 23.6262C6.46856 24.489 5.0868 24.9586 3.69016 24.9586ZM2.39086 22.854C3.89325 23.3206 5.58295 22.9478 6.7415 21.8278C6.88088 21.693 7.05815 21.6041 7.24952 21.5729C7.4409 21.5418 7.63722 21.57 7.81213 21.6536C14.6403 24.9183 22.6764 19.8012 22.6764 12.2826C22.6764 6.67209 18.1122 2.0158 12.5022 1.90285C6.72075 1.788 1.91491 6.47035 1.90097 12.2571C1.89646 14.1085 2.61882 15.5882 3.01358 17.342C3.42949 19.1903 3.21041 21.1448 2.39086 22.854Z" fill="white"/>
<path d="M28.3091 32C26.9126 32 25.5307 31.5303 24.4316 30.6676C20.1901 32.4378 15.1448 31.6316 11.6671 28.6283C11.2698 28.2852 11.226 27.685 11.569 27.2876C11.9121 26.8904 12.5123 26.8464 12.9096 27.1896C15.994 29.8533 20.5112 30.4525 24.1872 28.695C24.3622 28.6114 24.5585 28.5832 24.7499 28.6144C24.9412 28.6455 25.1185 28.7344 25.2579 28.8692C26.4163 29.9892 28.1061 30.3622 29.6085 29.8953C28.6417 27.8788 28.5078 25.5686 29.257 23.4299C29.2637 23.4106 29.2711 23.3917 29.279 23.3729C29.8262 22.083 30.1019 20.7121 30.0985 19.2984C30.0925 16.806 29.2633 14.5004 27.7006 12.6307C27.364 12.2278 27.4176 11.6285 27.8204 11.2919C28.223 10.9552 28.8226 11.0089 29.1592 11.4116C30.9838 13.5946 31.9925 16.3939 31.9994 19.2938C32.0035 20.9549 31.6812 22.5669 31.0416 24.0857C30.3698 26.0305 30.6787 28.1127 31.7546 29.8447C32.0458 30.317 31.857 30.9447 31.3697 31.1957C30.4231 31.7271 29.3783 31.9999 28.3091 32Z" fill="white"/>
<path d="M12.2881 13.8331C13.1188 13.8331 13.7921 13.1601 13.7921 12.3299C13.7921 11.4998 13.1188 10.8268 12.2881 10.8268C11.4575 10.8268 10.7842 11.4998 10.7842 12.3299C10.7842 13.1601 11.4575 13.8331 12.2881 13.8331Z" fill="white"/>
<path d="M6.74811 13.8331C7.57872 13.8331 8.25207 13.1601 8.25207 12.3299C8.25207 11.4998 7.57872 10.8268 6.74811 10.8268C5.91749 10.8268 5.24414 11.4998 5.24414 12.3299C5.24414 13.1601 5.91749 13.8331 6.74811 13.8331Z" fill="white"/>
<path d="M17.8292 13.8331C18.6598 13.8331 19.3331 13.1601 19.3331 12.3299C19.3331 11.4998 18.6598 10.8268 17.8292 10.8268C16.9985 10.8268 16.3252 11.4998 16.3252 12.3299C16.3252 13.1601 16.9985 13.8331 17.8292 13.8331Z" fill="white"/>
</g>
<defs>
<clipPath id="clip0_1690_244">
<rect width="32" height="32" fill="white"/>
</clipPath>
</defs>
</svg>
